<svg width="54" height="53" viewBox="0 0 54 53" fill="none" xmlns="http://www.w3.org/2000/svg">
<path d="M24.9852 1.13451C26.2361 0.430161 27.7639 0.430161 29.0148 1.13451L48.291 11.9886C49.5832 12.7162 50.3827 14.0839 50.3827 15.5668V37.0986C50.3827 38.5815 49.5832 39.9492 48.291 40.6768L29.0148 51.5309C27.7639 52.2352 26.2361 52.2352 24.9852 51.5309L5.70896 40.6768C4.41681 39.9492 3.61731 38.5815 3.61731 37.0986V15.5668C3.61731 14.0839 4.41681 12.7162 5.70896 11.9886L24.9852 1.13451Z" fill="url(#paint0_linear_1760_113)"/>
<path d="M25.2418 2.17347C26.3364 1.5571 27.6733 1.5571 28.7679 2.17347L43.8556 10.6696C46.3013 12.0468 46.2943 15.5708 43.8432 16.9383L28.7555 25.356C27.6673 25.9631 26.3423 25.9631 25.2542 25.356L10.1665 16.9383C7.71537 15.5708 7.7084 12.0468 10.1541 10.6696L25.2418 2.17347Z" fill="black"/>
<path d="M24.4349 2.62782C25.5842 1.98067 27.0048 2.8111 27.0048 4.13001V13.4744V23.3968C27.0048 24.7126 25.59 25.5434 24.4409 24.9023L7.25433 15.3136C6.07829 14.6575 6.07495 12.9667 7.24838 12.3059L24.4349 2.62782Z" fill="black"/>
<path d="M29.575 2.62822C28.4258 1.98092 27.005 2.81134 27.005 4.13033V13.4744V23.3964C27.005 24.7124 28.4199 25.5432 29.5691 24.9019L46.7513 15.3135C47.9271 14.6573 47.9305 12.9668 46.7572 12.306L29.575 2.62822Z" fill="black"/>
<path d="M29.1465 31.825C29.1465 31.6379 29.2484 31.4656 29.4124 31.3754L37.1888 27.0957C37.5309 26.9074 37.9496 27.1549 37.9496 27.5454L37.9496 29.352C37.9496 29.5385 37.8484 29.7104 37.6853 29.8009L29.9087 34.1145C29.5666 34.3043 29.1464 34.0568 29.1464 33.6656L29.1465 31.825Z" fill="#4C4C4C"/>
<path d="M39.1207 26.335C39.1207 26.1477 39.2226 25.9754 39.3867 25.8852L46.5823 21.9295C46.9244 21.7415 47.3429 21.989 47.3429 22.3793L47.3429 24.1863C47.3429 24.3729 47.2416 24.5447 47.0785 24.6352L39.8827 28.6245C39.5406 28.8142 39.1205 28.5668 39.1205 28.1756L39.1207 26.335Z" fill="#4C4C4C"/>
<path d="M29.1626 37.0033C29.1627 36.8161 29.2645 36.6438 29.4285 36.5536L37.2049 32.2739C37.547 32.0857 37.9657 32.3332 37.9657 32.7236L37.9657 34.5302C37.9657 34.7167 37.8645 34.8886 37.7014 34.9791L29.9248 39.2927C29.5827 39.4825 29.1625 39.235 29.1625 38.8438L29.1626 37.0033Z" fill="#4C4C4C"/>
<path d="M39.1373 31.5133C39.1373 31.3261 39.2392 31.1537 39.4033 31.0635L46.5989 27.1079C46.941 26.9198 47.3595 27.1673 47.3595 27.5577L47.3595 29.3646C47.3595 29.5512 47.2582 29.7231 47.0951 29.8136L39.8993 33.8029C39.5572 33.9925 39.1371 33.7451 39.1371 33.3539L39.1373 31.5133Z" fill="#4C4C4C"/>
<path d="M29.1626 42.1876C29.1627 42.0005 29.2645 41.8282 29.4285 41.7379L37.2049 37.4583C37.547 37.27 37.9657 37.5175 37.9657 37.908L37.9657 39.7145C37.9657 39.9011 37.8645 40.0729 37.7014 40.1634L29.9248 44.477C29.5827 44.6668 29.1625 44.4194 29.1625 44.0281L29.1626 42.1876Z" fill="#4C4C4C"/>
<path d="M39.1373 36.6977C39.1373 36.5105 39.2392 36.3381 39.4033 36.2479L46.5989 32.2922C46.941 32.1042 47.3595 32.3517 47.3595 32.7421L47.3595 34.549C47.3595 34.7356 47.2582 34.9075 47.0951 34.9979L39.8993 38.9873C39.5572 39.1769 39.1371 38.9295 39.1371 38.5383L39.1373 36.6977Z" fill="#4C4C4C"/>
<defs>
<linearGradient id="paint0_linear_1760_113" x1="3.51616" y1="26.3327" x2="51.3821" y2="26.3327" gradientUnits="userSpaceOnUse">
<stop stop-color="white"/>
<stop offset="1" stop-color="white"/>
</linearGradient>
</defs>
</svg>
